# xmcd CD database file
#
# Track frame offsets:
#	150
#	19491
#	48533
#	80561
#	101010
#	118923
#	147919
#	171884
#	190025
#
# Disc length: 2853 seconds
#
# Revision: 1
# Processed by: cddbd v1.5.1PL0 Copyright (c) Steve Scherf et al.
# Submitted via: CDex 1.50beta9
#
DISCID=7e0b2309
DTITLE=HAVL - Who is it? Tak for koncerten ved Lindevang kirke copenhagen jazz festival 2005
DYEAR=2005
DGENRE=Jazz
TTITLE0=Rythm
TTITLE1=Sped swing
TTITLE2=Schweinbird
TTITLE3=Who it it?
TTITLE4=The promised land
TTITLE5=I remember bedste
TTITLE6=Legpull
TTITLE7=Nesbacon
TTITLE8=Strato-sphere
EXTD=YEAR: 2005
EXTT0=
EXTT1=
EXTT2=
EXTT3=
EXTT4=
EXTT5=
EXTT6=
EXTT7=
EXTT8=
PLAYORDER=
